<?xml version="1.0" encoding="utf-8"?>
<svg xmlns="http://www.w3.org/2000/svg" xmlns:xlink="http://www.w3.org/1999/xlink" width="600" height="400" viewBox="0 0 2400 1600">
<defs>
  <clipPath id="clip890">
    <rect x="0" y="0" width="2400" height="1600"/>
  </clipPath>
</defs>
<path clip-path="url(#clip890)" d="
M0 1600 L2400 1600 L2400 0 L0 0  Z
  " fill="#ffffff" fill-rule="evenodd" fill-opacity="1"/>
<defs>
  <clipPath id="clip891">
    <rect x="480" y="0" width="1681" height="1600"/>
  </clipPath>
</defs>
<path clip-path="url(#clip890)" d="
M447.244 1552.76 L1952.76 1552.76 L1952.76 47.2441 L447.244 47.2441  Z
  " fill="#ffffff" fill-rule="evenodd" fill-opacity="1"/>
<defs>
  <clipPath id="clip892">
    <rect x="447" y="47" width="1507" height="1507"/>
  </clipPath>
</defs>
<polyline clip-path="url(#clip892)" style="stroke:#000000; stroke-linecap:butt; stroke-linejoin:round; stroke-width:4; stroke-opacity:1; fill:none" points="
  1737.68,800 749.611,589.275 
  "/>
<polyline clip-path="url(#clip892)" style="stroke:#000000; stroke-linecap:butt; stroke-linejoin:round; stroke-width:4; stroke-opacity:1; fill:none" points="
  781.065,614.388 749.611,589.275 788.573,579.179 
  "/>
<polyline clip-path="url(#clip892)" style="stroke:#000000; stroke-linecap:butt; stroke-linejoin:round; stroke-width:4; stroke-opacity:1; fill:none" points="
  749.611,589.275 1737.68,800 
  "/>
<polyline clip-path="url(#clip892)" style="stroke:#000000; stroke-linecap:butt; stroke-linejoin:round; stroke-width:4; stroke-opacity:1; fill:none" points="
  1737.68,800 728.231,1031.23 
  "/>
<polyline clip-path="url(#clip892)" style="stroke:#000000; stroke-linecap:butt; stroke-linejoin:round; stroke-width:4; stroke-opacity:1; fill:none" points="
  767.342,1040.74 728.231,1031.23 759.303,1005.65 
  "/>
<polyline clip-path="url(#clip892)" style="stroke:#000000; stroke-linecap:butt; stroke-linejoin:round; stroke-width:4; stroke-opacity:1; fill:none" points="
  728.231,1031.23 1737.68,800 
  "/>
<polyline clip-path="url(#clip892)" style="stroke:#000000; stroke-linecap:butt; stroke-linejoin:round; stroke-width:4; stroke-opacity:1; fill:none" points="
  1737.68,800 1078.85,1318.12 
  "/>
<polyline clip-path="url(#clip892)" style="stroke:#000000; stroke-linecap:butt; stroke-linejoin:round; stroke-width:4; stroke-opacity:1; fill:none" points="
  1118.27,1310.01 1078.85,1318.12 1096.02,1281.71 
  "/>
<polyline clip-path="url(#clip892)" style="stroke:#000000; stroke-linecap:butt; stroke-linejoin:round; stroke-width:4; stroke-opacity:1; fill:none" points="
  1078.85,1318.12 1737.68,800 
  "/>
<polyline clip-path="url(#clip892)" style="stroke:#000000; stroke-linecap:butt; stroke-linejoin:round; stroke-width:4; stroke-opacity:1; fill:none" points="
  1524.69,368.812 1719.16,723.935 
  "/>
<polyline clip-path="url(#clip892)" style="stroke:#000000; stroke-linecap:butt; stroke-linejoin:round; stroke-width:4; stroke-opacity:1; fill:none" points="
  1717.66,683.714 1719.16,723.935 1686.08,701.005 
  "/>
<polyline clip-path="url(#clip892)" style="stroke:#000000; stroke-linecap:butt; stroke-linejoin:round; stroke-width:4; stroke-opacity:1; fill:none" points="
  1719.16,723.935 1524.69,368.812 
  "/>
<polyline clip-path="url(#clip892)" style="stroke:#000000; stroke-linecap:butt; stroke-linejoin:round; stroke-width:4; stroke-opacity:1; fill:none" points="
  1046.11,262.317 1682.19,744.776 
  "/>
<polyline clip-path="url(#clip892)" style="stroke:#000000; stroke-linecap:butt; stroke-linejoin:round; stroke-width:4; stroke-opacity:1; fill:none" points="
  1664.39,708.679 1682.19,744.776 1642.63,737.362 
  "/>
<polyline clip-path="url(#clip892)" style="stroke:#000000; stroke-linecap:butt; stroke-linejoin:round; stroke-width:4; stroke-opacity:1; fill:none" points="
  1682.19,744.776 1046.11,262.317 
  "/>
<polyline clip-path="url(#clip892)" style="stroke:#000000; stroke-linecap:butt; stroke-linejoin:round; stroke-width:4; stroke-opacity:1; fill:none" points="
  1524.69,1231.19 1688.53,860.933 
  "/>
<polyline clip-path="url(#clip892)" style="stroke:#000000; stroke-linecap:butt; stroke-linejoin:round; stroke-width:4; stroke-opacity:1; fill:none" points="
  1657.5,886.57 1688.53,860.933 1690.42,901.138 
  "/>
<polyline clip-path="url(#clip892)" style="stroke:#000000; stroke-linecap:butt; stroke-linejoin:round; stroke-width:4; stroke-opacity:1; fill:none" points="
  1688.53,860.933 1524.69,1231.19 
  "/>
<path clip-path="url(#clip892)" d="
M1815.97 800 L1815.72 793.78 L1814.98 787.6 L1813.75 781.497 L1812.04 775.512 L1809.86 769.682 L1807.22 764.043 L1804.15 758.632 L1800.65 753.482 L1796.76 748.626 
  L1792.49 744.095 L1787.87 739.918 L1782.94 736.12 L1777.72 732.727 L1772.25 729.758 L1766.56 727.234 L1760.69 725.17 L1754.67 723.578 L1748.54 722.47 L1742.35 721.853 
  L1736.13 721.729 L1729.91 722.1 L1723.75 722.964 L1717.67 724.314 L1711.72 726.143 L1705.94 728.439 L1700.35 731.188 L1695 734.372 L1689.92 737.97 L1685.14 741.961 
  L1680.7 746.318 L1676.61 751.015 L1672.92 756.022 L1669.63 761.307 L1666.77 766.836 L1664.36 772.575 L1662.41 778.488 L1660.94 784.536 L1659.95 790.682 L1659.46 796.888 
  L1659.46 803.112 L1659.95 809.318 L1660.94 815.464 L1662.41 821.512 L1664.36 827.425 L1666.77 833.164 L1669.63 838.693 L1672.92 843.978 L1676.61 848.985 L1680.7 853.682 
  L1685.14 858.039 L1689.92 862.03 L1695 865.628 L1700.35 868.812 L1705.94 871.561 L1711.72 873.857 L1717.67 875.686 L1723.75 877.036 L1729.91 877.9 L1736.13 878.271 
  L1742.35 878.147 L1748.54 877.53 L1754.67 876.422 L1760.69 874.83 L1766.56 872.766 L1772.25 870.242 L1777.72 867.273 L1782.94 863.88 L1787.87 860.082 L1792.49 855.905 
  L1796.76 851.374 L1800.65 846.518 L1804.15 841.368 L1807.22 835.957 L1809.86 830.318 L1812.04 824.488 L1813.75 818.503 L1814.98 812.4 L1815.72 806.22 L1815.97 800 
  L1815.97 800  Z
  " fill="#e26f46" fill-rule="evenodd" fill-opacity="1"/>
<polyline clip-path="url(#clip892)" style="stroke:#000000; stroke-linecap:butt; stroke-linejoin:round; stroke-width:4; stroke-opacity:1; fill:none" points="
  1815.97,800 1815.72,793.78 1814.98,787.6 1813.75,781.497 1812.04,775.512 1809.86,769.682 1807.22,764.043 1804.15,758.632 1800.65,753.482 1796.76,748.626 
  1792.49,744.095 1787.87,739.918 1782.94,736.12 1777.72,732.727 1772.25,729.758 1766.56,727.234 1760.69,725.17 1754.67,723.578 1748.54,722.47 1742.35,721.853 
  1736.13,721.729 1729.91,722.1 1723.75,722.964 1717.67,724.314 1711.72,726.143 1705.94,728.439 1700.35,731.188 1695,734.372 1689.92,737.97 1685.14,741.961 
  1680.7,746.318 1676.61,751.015 1672.92,756.022 1669.63,761.307 1666.77,766.836 1664.36,772.575 1662.41,778.488 1660.94,784.536 1659.95,790.682 1659.46,796.888 
  1659.46,803.112 1659.95,809.318 1660.94,815.464 1662.41,821.512 1664.36,827.425 1666.77,833.164 1669.63,838.693 1672.92,843.978 1676.61,848.985 1680.7,853.682 
  1685.14,858.039 1689.92,862.03 1695,865.628 1700.35,868.812 1705.94,871.561 1711.72,873.857 1717.67,875.686 1723.75,877.036 1729.91,877.9 1736.13,878.271 
  1742.35,878.147 1748.54,877.53 1754.67,876.422 1760.69,874.83 1766.56,872.766 1772.25,870.242 1777.72,867.273 1782.94,863.88 1787.87,860.082 1792.49,855.905 
  1796.76,851.374 1800.65,846.518 1804.15,841.368 1807.22,835.957 1809.86,830.318 1812.04,824.488 1813.75,818.503 1814.98,812.4 1815.72,806.22 1815.97,800 
  
  "/>
<path clip-path="url(#clip892)" d="
M1591.1 368.812 L1590.89 363.536 L1590.26 358.293 L1589.22 353.117 L1587.77 348.041 L1585.92 343.095 L1583.68 338.312 L1581.07 333.722 L1578.1 329.354 L1574.8 325.235 
  L1571.18 321.392 L1567.27 317.849 L1563.08 314.627 L1558.66 311.749 L1554.01 309.231 L1549.19 307.09 L1544.21 305.339 L1539.1 303.989 L1533.91 303.049 L1528.65 302.525 
  L1523.37 302.42 L1518.1 302.735 L1512.87 303.467 L1507.72 304.613 L1502.67 306.165 L1497.76 308.112 L1493.03 310.444 L1488.49 313.144 L1484.18 316.196 L1480.13 319.581 
  L1476.36 323.278 L1472.89 327.262 L1469.76 331.509 L1466.97 335.991 L1464.54 340.681 L1462.5 345.55 L1460.84 350.565 L1459.6 355.695 L1458.76 360.908 L1458.34 366.172 
  L1458.34 371.452 L1458.76 376.715 L1459.6 381.929 L1460.84 387.059 L1462.5 392.074 L1464.54 396.942 L1466.97 401.632 L1469.76 406.115 L1472.89 410.362 L1476.36 414.346 
  L1480.13 418.042 L1484.18 421.427 L1488.49 424.48 L1493.03 427.18 L1497.76 429.512 L1502.67 431.459 L1507.72 433.011 L1512.87 434.156 L1518.1 434.889 L1523.37 435.204 
  L1528.65 435.099 L1533.91 434.575 L1539.1 433.635 L1544.21 432.285 L1549.19 430.534 L1554.01 428.393 L1558.66 425.875 L1563.08 422.996 L1567.27 419.775 L1571.18 416.232 
  L1574.8 412.389 L1578.1 408.27 L1581.07 403.902 L1583.68 399.311 L1585.92 394.529 L1587.77 389.583 L1589.22 384.506 L1590.26 379.33 L1590.89 374.088 L1591.1 368.812 
  L1591.1 368.812  Z
  " fill="#009af9" fill-rule="evenodd" fill-opacity="1"/>
<polyline clip-path="url(#clip892)" style="stroke:#000000; stroke-linecap:butt; stroke-linejoin:round; stroke-width:4; stroke-opacity:1; fill:none" points="
  1591.1,368.812 1590.89,363.536 1590.26,358.293 1589.22,353.117 1587.77,348.041 1585.92,343.095 1583.68,338.312 1581.07,333.722 1578.1,329.354 1574.8,325.235 
  1571.18,321.392 1567.27,317.849 1563.08,314.627 1558.66,311.749 1554.01,309.231 1549.19,307.09 1544.21,305.339 1539.1,303.989 1533.91,303.049 1528.65,302.525 
  1523.37,302.42 1518.1,302.735 1512.87,303.467 1507.72,304.613 1502.67,306.165 1497.76,308.112 1493.03,310.444 1488.49,313.144 1484.18,316.196 1480.13,319.581 
  1476.36,323.278 1472.89,327.262 1469.76,331.509 1466.97,335.991 1464.54,340.681 1462.5,345.55 1460.84,350.565 1459.6,355.695 1458.76,360.908 1458.34,366.172 
  1458.34,371.452 1458.76,376.715 1459.6,381.929 1460.84,387.059 1462.5,392.074 1464.54,396.942 1466.97,401.632 1469.76,406.115 1472.89,410.362 1476.36,414.346 
  1480.13,418.042 1484.18,421.427 1488.49,424.48 1493.03,427.18 1497.76,429.512 1502.67,431.459 1507.72,433.011 1512.87,434.156 1518.1,434.889 1523.37,435.204 
  1528.65,435.099 1533.91,434.575 1539.1,433.635 1544.21,432.285 1549.19,430.534 1554.01,428.393 1558.66,425.875 1563.08,422.996 1567.27,419.775 1571.18,416.232 
  1574.8,412.389 1578.1,408.27 1581.07,403.902 1583.68,399.311 1585.92,394.529 1587.77,389.583 1589.22,384.506 1590.26,379.33 1590.89,374.088 1591.1,368.812 
  
  "/>
<path clip-path="url(#clip892)" d="
M1112.52 262.317 L1112.31 257.041 L1111.68 251.799 L1110.63 246.623 L1109.18 241.546 L1107.33 236.6 L1105.1 231.818 L1102.49 227.228 L1099.52 222.859 L1096.22 218.741 
  L1092.6 214.897 L1088.68 211.354 L1084.5 208.133 L1080.07 205.254 L1075.43 202.736 L1070.61 200.595 L1065.62 198.844 L1060.52 197.494 L1055.32 196.554 L1050.07 196.03 
  L1044.79 195.925 L1039.52 196.24 L1034.29 196.973 L1029.14 198.118 L1024.09 199.67 L1019.18 201.618 L1014.44 203.949 L1009.91 206.649 L1005.6 209.702 L1001.55 213.087 
  L997.776 216.783 L994.311 220.767 L991.174 225.014 L988.384 229.497 L985.958 234.187 L983.914 239.055 L982.262 244.07 L981.014 249.2 L980.178 254.414 L979.758 259.677 
  L979.758 264.957 L980.178 270.221 L981.014 275.434 L982.262 280.564 L983.914 285.58 L985.958 290.448 L988.384 295.138 L991.174 299.62 L994.311 303.867 L997.776 307.851 
  L1001.55 311.548 L1005.6 314.933 L1009.91 317.985 L1014.44 320.686 L1019.18 323.017 L1024.09 324.965 L1029.14 326.516 L1034.29 327.662 L1039.52 328.394 L1044.79 328.709 
  L1050.07 328.604 L1055.32 328.08 L1060.52 327.14 L1065.62 325.79 L1070.61 324.04 L1075.43 321.898 L1080.07 319.38 L1084.5 316.502 L1088.68 313.281 L1092.6 309.737 
  L1096.22 305.894 L1099.52 301.775 L1102.49 297.407 L1105.1 292.817 L1107.33 288.034 L1109.18 283.088 L1110.63 278.012 L1111.68 272.836 L1112.31 267.593 L1112.52 262.317 
  L1112.52 262.317  Z
  " fill="#009af9" fill-rule="evenodd" fill-opacity="1"/>
<polyline clip-path="url(#clip892)" style="stroke:#000000; stroke-linecap:butt; stroke-linejoin:round; stroke-width:4; stroke-opacity:1; fill:none" points="
  1112.52,262.317 1112.31,257.041 1111.68,251.799 1110.63,246.623 1109.18,241.546 1107.33,236.6 1105.1,231.818 1102.49,227.228 1099.52,222.859 1096.22,218.741 
  1092.6,214.897 1088.68,211.354 1084.5,208.133 1080.07,205.254 1075.43,202.736 1070.61,200.595 1065.62,198.844 1060.52,197.494 1055.32,196.554 1050.07,196.03 
  1044.79,195.925 1039.52,196.24 1034.29,196.973 1029.14,198.118 1024.09,199.67 1019.18,201.618 1014.44,203.949 1009.91,206.649 1005.6,209.702 1001.55,213.087 
  997.776,216.783 994.311,220.767 991.174,225.014 988.384,229.497 985.958,234.187 983.914,239.055 982.262,244.07 981.014,249.2 980.178,254.414 979.758,259.677 
  979.758,264.957 980.178,270.221 981.014,275.434 982.262,280.564 983.914,285.58 985.958,290.448 988.384,295.138 991.174,299.62 994.311,303.867 997.776,307.851 
  1001.55,311.548 1005.6,314.933 1009.91,317.985 1014.44,320.686 1019.18,323.017 1024.09,324.965 1029.14,326.516 1034.29,327.662 1039.52,328.394 1044.79,328.709 
  1050.07,328.604 1055.32,328.08 1060.52,327.14 1065.62,325.79 1070.61,324.04 1075.43,321.898 1080.07,319.38 1084.5,316.502 1088.68,313.281 1092.6,309.737 
  1096.22,305.894 1099.52,301.775 1102.49,297.407 1105.1,292.817 1107.33,288.034 1109.18,283.088 1110.63,278.012 1111.68,272.836 1112.31,267.593 1112.52,262.317 
  
  "/>
<path clip-path="url(#clip892)" d="
M754.166 560.709 L753.876 553.411 L753.006 546.16 L751.564 539.001 L749.557 531.979 L746.999 525.138 L743.905 518.523 L740.295 512.174 L736.193 506.132 L731.623 500.435 
  L726.615 495.119 L721.201 490.218 L715.414 485.763 L709.292 481.781 L702.873 478.298 L696.197 475.337 L689.307 472.915 L682.246 471.048 L675.06 469.748 L667.793 469.023 
  L660.491 468.878 L653.201 469.313 L645.968 470.327 L638.839 471.911 L631.858 474.057 L625.07 476.751 L618.518 479.976 L612.242 483.711 L606.283 487.933 L600.678 492.615 
  L595.462 497.727 L590.67 503.238 L586.33 509.112 L582.471 515.312 L579.117 521.8 L576.289 528.533 L574.004 535.47 L572.278 542.566 L571.121 549.777 L570.541 557.057 
  L570.541 564.36 L571.121 571.64 L572.278 578.851 L574.004 585.948 L576.289 592.884 L579.117 599.618 L582.471 606.105 L586.33 612.305 L590.67 618.179 L595.462 623.69 
  L600.678 628.802 L606.283 633.484 L612.242 637.706 L618.518 641.441 L625.07 644.666 L631.858 647.36 L638.839 649.506 L645.968 651.091 L653.201 652.104 L660.491 652.539 
  L667.793 652.394 L675.06 651.669 L682.246 650.369 L689.307 648.502 L696.197 646.081 L702.873 643.119 L709.292 639.636 L715.414 635.655 L721.201 631.199 L726.615 626.298 
  L731.623 620.982 L736.193 615.285 L740.295 609.243 L743.905 602.895 L746.999 596.279 L749.557 589.439 L751.564 582.417 L753.006 575.257 L753.876 568.006 L754.166 560.709 
  L754.166 560.709  Z
  " fill="#009af9" fill-rule="evenodd" fill-opacity="1"/>
<polyline clip-path="url(#clip892)" style="stroke:#000000; stroke-linecap:butt; stroke-linejoin:round; stroke-width:4; stroke-opacity:1; fill:none" points="
  754.166,560.709 753.876,553.411 753.006,546.16 751.564,539.001 749.557,531.979 746.999,525.138 743.905,518.523 740.295,512.174 736.193,506.132 731.623,500.435 
  726.615,495.119 721.201,490.218 715.414,485.763 709.292,481.781 702.873,478.298 696.197,475.337 689.307,472.915 682.246,471.048 675.06,469.748 667.793,469.023 
  660.491,468.878 653.201,469.313 645.968,470.327 638.839,471.911 631.858,474.057 625.07,476.751 618.518,479.976 612.242,483.711 606.283,487.933 600.678,492.615 
  595.462,497.727 590.67,503.238 586.33,509.112 582.471,515.312 579.117,521.8 576.289,528.533 574.004,535.47 572.278,542.566 571.121,549.777 570.541,557.057 
  570.541,564.36 571.121,571.64 572.278,578.851 574.004,585.948 576.289,592.884 579.117,599.618 582.471,606.105 586.33,612.305 590.67,618.179 595.462,623.69 
  600.678,628.802 606.283,633.484 612.242,637.706 618.518,641.441 625.07,644.666 631.858,647.36 638.839,649.506 645.968,651.091 653.201,652.104 660.491,652.539 
  667.793,652.394 675.06,651.669 682.246,650.369 689.307,648.502 696.197,646.081 702.873,643.119 709.292,639.636 715.414,635.655 721.201,631.199 726.615,626.298 
  731.623,620.982 736.193,615.285 740.295,609.243 743.905,602.895 746.999,596.279 749.557,589.439 751.564,582.417 753.006,575.257 753.876,568.006 754.166,560.709 
  
  "/>
<path clip-path="url(#clip892)" d="
M728.722 1039.29 L728.512 1034.02 L727.884 1028.77 L726.841 1023.6 L725.39 1018.52 L723.54 1013.57 L721.304 1008.79 L718.694 1004.2 L715.728 999.833 L712.424 995.715 
  L708.803 991.871 L704.889 988.328 L700.705 985.107 L696.279 982.228 L691.638 979.71 L686.812 977.569 L681.83 975.818 L676.726 974.468 L671.53 973.529 L666.276 973.005 
  L660.997 972.9 L655.726 973.214 L650.497 973.947 L645.343 975.092 L640.296 976.644 L635.388 978.592 L630.651 980.923 L626.114 983.623 L621.805 986.676 L617.753 990.061 
  L613.982 993.757 L610.518 997.741 L607.38 1001.99 L604.59 1006.47 L602.165 1011.16 L600.12 1016.03 L598.469 1021.04 L597.221 1026.17 L596.384 1031.39 L595.965 1036.65 
  L595.965 1041.93 L596.384 1047.19 L597.221 1052.41 L598.469 1057.54 L600.12 1062.55 L602.165 1067.42 L604.59 1072.11 L607.38 1076.59 L610.518 1080.84 L613.982 1084.83 
  L617.753 1088.52 L621.805 1091.91 L626.114 1094.96 L630.651 1097.66 L635.388 1099.99 L640.296 1101.94 L645.343 1103.49 L650.497 1104.64 L655.726 1105.37 L660.997 1105.68 
  L666.276 1105.58 L671.53 1105.05 L676.726 1104.11 L681.83 1102.76 L686.812 1101.01 L691.638 1098.87 L696.279 1096.35 L700.705 1093.48 L704.889 1090.25 L708.803 1086.71 
  L712.424 1082.87 L715.728 1078.75 L718.694 1074.38 L721.304 1069.79 L723.54 1065.01 L725.39 1060.06 L726.841 1054.99 L727.884 1049.81 L728.512 1044.57 L728.722 1039.29 
  L728.722 1039.29  Z
  " fill="#009af9" fill-rule="evenodd" fill-opacity="1"/>
<polyline clip-path="url(#clip892)" style="stroke:#000000; stroke-linecap:butt; stroke-linejoin:round; stroke-width:4; stroke-opacity:1; fill:none" points="
  728.722,1039.29 728.512,1034.02 727.884,1028.77 726.841,1023.6 725.39,1018.52 723.54,1013.57 721.304,1008.79 718.694,1004.2 715.728,999.833 712.424,995.715 
  708.803,991.871 704.889,988.328 700.705,985.107 696.279,982.228 691.638,979.71 686.812,977.569 681.83,975.818 676.726,974.468 671.53,973.529 666.276,973.005 
  660.997,972.9 655.726,973.214 650.497,973.947 645.343,975.092 640.296,976.644 635.388,978.592 630.651,980.923 626.114,983.623 621.805,986.676 617.753,990.061 
  613.982,993.757 610.518,997.741 607.38,1001.99 604.59,1006.47 602.165,1011.16 600.12,1016.03 598.469,1021.04 597.221,1026.17 596.384,1031.39 595.965,1036.65 
  595.965,1041.93 596.384,1047.19 597.221,1052.41 598.469,1057.54 600.12,1062.55 602.165,1067.42 604.59,1072.11 607.38,1076.59 610.518,1080.84 613.982,1084.83 
  617.753,1088.52 621.805,1091.91 626.114,1094.96 630.651,1097.66 635.388,1099.99 640.296,1101.94 645.343,1103.49 650.497,1104.64 655.726,1105.37 660.997,1105.68 
  666.276,1105.58 671.53,1105.05 676.726,1104.11 681.83,1102.76 686.812,1101.01 691.638,1098.87 696.279,1096.35 700.705,1093.48 704.889,1090.25 708.803,1086.71 
  712.424,1082.87 715.728,1078.75 718.694,1074.38 721.304,1069.79 723.54,1065.01 725.39,1060.06 726.841,1054.99 727.884,1049.81 728.512,1044.57 728.722,1039.29 
  
  "/>
<path clip-path="url(#clip892)" d="
M1084.25 1337.68 L1084.13 1334.65 L1083.77 1331.64 L1083.17 1328.67 L1082.34 1325.75 L1081.27 1322.91 L1079.99 1320.17 L1078.49 1317.53 L1076.79 1315.02 L1074.89 1312.65 
  L1072.81 1310.45 L1070.56 1308.41 L1068.16 1306.56 L1065.62 1304.91 L1062.95 1303.46 L1060.18 1302.23 L1057.32 1301.23 L1054.39 1300.45 L1051.4 1299.91 L1048.38 1299.61 
  L1045.35 1299.55 L1042.33 1299.73 L1039.32 1300.15 L1036.36 1300.81 L1033.46 1301.7 L1030.64 1302.82 L1027.92 1304.16 L1025.32 1305.71 L1022.84 1307.46 L1020.52 1309.41 
  L1018.35 1311.53 L1016.36 1313.82 L1014.56 1316.26 L1012.96 1318.83 L1011.56 1321.53 L1010.39 1324.32 L1009.44 1327.2 L1008.72 1330.15 L1008.24 1333.14 L1008 1336.17 
  L1008 1339.2 L1008.24 1342.22 L1008.72 1345.22 L1009.44 1348.16 L1010.39 1351.04 L1011.56 1353.84 L1012.96 1356.53 L1014.56 1359.11 L1016.36 1361.55 L1018.35 1363.84 
  L1020.52 1365.96 L1022.84 1367.9 L1025.32 1369.66 L1027.92 1371.21 L1030.64 1372.55 L1033.46 1373.66 L1036.36 1374.56 L1039.32 1375.21 L1042.33 1375.63 L1045.35 1375.81 
  L1048.38 1375.75 L1051.4 1375.45 L1054.39 1374.91 L1057.32 1374.14 L1060.18 1373.13 L1062.95 1371.9 L1065.62 1370.46 L1068.16 1368.8 L1070.56 1366.95 L1072.81 1364.92 
  L1074.89 1362.71 L1076.79 1360.35 L1078.49 1357.84 L1079.99 1355.2 L1081.27 1352.45 L1082.34 1349.61 L1083.17 1346.7 L1083.77 1343.72 L1084.13 1340.71 L1084.25 1337.68 
  L1084.25 1337.68  Z
  " fill="#009af9" fill-rule="evenodd" fill-opacity="1"/>
<polyline clip-path="url(#clip892)" style="stroke:#000000; stroke-linecap:butt; stroke-linejoin:round; stroke-width:4; stroke-opacity:1; fill:none" points="
  1084.25,1337.68 1084.13,1334.65 1083.77,1331.64 1083.17,1328.67 1082.34,1325.75 1081.27,1322.91 1079.99,1320.17 1078.49,1317.53 1076.79,1315.02 1074.89,1312.65 
  1072.81,1310.45 1070.56,1308.41 1068.16,1306.56 1065.62,1304.91 1062.95,1303.46 1060.18,1302.23 1057.32,1301.23 1054.39,1300.45 1051.4,1299.91 1048.38,1299.61 
  1045.35,1299.55 1042.33,1299.73 1039.32,1300.15 1036.36,1300.81 1033.46,1301.7 1030.64,1302.82 1027.92,1304.16 1025.32,1305.71 1022.84,1307.46 1020.52,1309.41 
  1018.35,1311.53 1016.36,1313.82 1014.56,1316.26 1012.96,1318.83 1011.56,1321.53 1010.39,1324.32 1009.44,1327.2 1008.72,1330.15 1008.24,1333.14 1008,1336.17 
  1008,1339.2 1008.24,1342.22 1008.72,1345.22 1009.44,1348.16 1010.39,1351.04 1011.56,1353.84 1012.96,1356.53 1014.56,1359.11 1016.36,1361.55 1018.35,1363.84 
  1020.52,1365.96 1022.84,1367.9 1025.32,1369.66 1027.92,1371.21 1030.64,1372.55 1033.46,1373.66 1036.36,1374.56 1039.32,1375.21 1042.33,1375.63 1045.35,1375.81 
  1048.38,1375.75 1051.4,1375.45 1054.39,1374.91 1057.32,1374.14 1060.18,1373.13 1062.95,1371.9 1065.62,1370.46 1068.16,1368.8 1070.56,1366.95 1072.81,1364.92 
  1074.89,1362.71 1076.79,1360.35 1078.49,1357.84 1079.99,1355.2 1081.27,1352.45 1082.34,1349.61 1083.17,1346.7 1083.77,1343.72 1084.13,1340.71 1084.25,1337.68 
  
  "/>
<path clip-path="url(#clip892)" d="
M1562.83 1231.19 L1562.71 1228.16 L1562.35 1225.15 L1561.75 1222.17 L1560.92 1219.26 L1559.86 1216.42 L1558.57 1213.67 L1557.07 1211.03 L1555.37 1208.53 L1553.47 1206.16 
  L1551.39 1203.95 L1549.14 1201.92 L1546.74 1200.07 L1544.2 1198.41 L1541.53 1196.97 L1538.76 1195.74 L1535.9 1194.73 L1532.97 1193.96 L1529.98 1193.42 L1526.97 1193.12 
  L1523.94 1193.06 L1520.91 1193.24 L1517.9 1193.66 L1514.94 1194.32 L1512.05 1195.21 L1509.23 1196.33 L1506.51 1197.66 L1503.9 1199.22 L1501.43 1200.97 L1499.1 1202.91 
  L1496.93 1205.04 L1494.94 1207.32 L1493.14 1209.76 L1491.54 1212.34 L1490.15 1215.03 L1488.97 1217.83 L1488.02 1220.71 L1487.31 1223.65 L1486.82 1226.65 L1486.58 1229.67 
  L1486.58 1232.7 L1486.82 1235.73 L1487.31 1238.72 L1488.02 1241.67 L1488.97 1244.55 L1490.15 1247.34 L1491.54 1250.04 L1493.14 1252.61 L1494.94 1255.05 L1496.93 1257.34 
  L1499.1 1259.46 L1501.43 1261.41 L1503.9 1263.16 L1506.51 1264.71 L1509.23 1266.05 L1512.05 1267.17 L1514.94 1268.06 L1517.9 1268.72 L1520.91 1269.14 L1523.94 1269.32 
  L1526.97 1269.26 L1529.98 1268.96 L1532.97 1268.42 L1535.9 1267.64 L1538.76 1266.64 L1541.53 1265.41 L1544.2 1263.96 L1546.74 1262.31 L1549.14 1260.46 L1551.39 1258.42 
  L1553.47 1256.22 L1555.37 1253.85 L1557.07 1251.34 L1558.57 1248.71 L1559.86 1245.96 L1560.92 1243.12 L1561.75 1240.2 L1562.35 1237.23 L1562.71 1234.22 L1562.83 1231.19 
  L1562.83 1231.19  Z
  " fill="#009af9" fill-rule="evenodd" fill-opacity="1"/>
<polyline clip-path="url(#clip892)" style="stroke:#000000; stroke-linecap:butt; stroke-linejoin:round; stroke-width:4; stroke-opacity:1; fill:none" points="
  1562.83,1231.19 1562.71,1228.16 1562.35,1225.15 1561.75,1222.17 1560.92,1219.26 1559.86,1216.42 1558.57,1213.67 1557.07,1211.03 1555.37,1208.53 1553.47,1206.16 
  1551.39,1203.95 1549.14,1201.92 1546.74,1200.07 1544.2,1198.41 1541.53,1196.97 1538.76,1195.74 1535.9,1194.73 1532.97,1193.96 1529.98,1193.42 1526.97,1193.12 
  1523.94,1193.06 1520.91,1193.24 1517.9,1193.66 1514.94,1194.32 1512.05,1195.21 1509.23,1196.33 1506.51,1197.66 1503.9,1199.22 1501.43,1200.97 1499.1,1202.91 
  1496.93,1205.04 1494.94,1207.32 1493.14,1209.76 1491.54,1212.34 1490.15,1215.03 1488.97,1217.83 1488.02,1220.71 1487.31,1223.65 1486.82,1226.65 1486.58,1229.67 
  1486.58,1232.7 1486.82,1235.73 1487.31,1238.72 1488.02,1241.67 1488.97,1244.55 1490.15,1247.34 1491.54,1250.04 1493.14,1252.61 1494.94,1255.05 1496.93,1257.34 
  1499.1,1259.46 1501.43,1261.41 1503.9,1263.16 1506.51,1264.71 1509.23,1266.05 1512.05,1267.17 1514.94,1268.06 1517.9,1268.72 1520.91,1269.14 1523.94,1269.32 
  1526.97,1269.26 1529.98,1268.96 1532.97,1268.42 1535.9,1267.64 1538.76,1266.64 1541.53,1265.41 1544.2,1263.96 1546.74,1262.31 1549.14,1260.46 1551.39,1258.42 
  1553.47,1256.22 1555.37,1253.85 1557.07,1251.34 1558.57,1248.71 1559.86,1245.96 1560.92,1243.12 1561.75,1240.2 1562.35,1237.23 1562.71,1234.22 1562.83,1231.19 
  
  "/>
<circle clip-path="url(#clip892)" style="fill:#009af9; stroke:none; fill-opacity:1" cx="1737.68" cy="800" r="2"/>
<circle clip-path="url(#clip892)" style="fill:#009af9; stroke:none; fill-opacity:1" cx="1524.69" cy="368.812" r="2"/>
<circle clip-path="url(#clip892)" style="fill:#009af9; stroke:none; fill-opacity:1" cx="1046.11" cy="262.317" r="2"/>
<circle clip-path="url(#clip892)" style="fill:#009af9; stroke:none; fill-opacity:1" cx="662.317" cy="560.709" r="2"/>
<circle clip-path="url(#clip892)" style="fill:#009af9; stroke:none; fill-opacity:1" cx="662.317" cy="1039.29" r="2"/>
<circle clip-path="url(#clip892)" style="fill:#009af9; stroke:none; fill-opacity:1" cx="1046.11" cy="1337.68" r="2"/>
<circle clip-path="url(#clip892)" style="fill:#009af9; stroke:none; fill-opacity:1" cx="1524.69" cy="1231.19" r="2"/>
<path clip-path="url(#clip890)" d="M1733 811.677 L1747.28 811.677 L1747.28 815.12 L1728.08 815.12 L1728.08 811.677 Q1730.41 809.266 1734.42 805.216 Q1738.45 801.144 1739.49 799.97 Q1741.45 797.762 1742.22 796.243 Q1743.01 794.703 1743.01 793.225 Q1743.01 790.815 1741.31 789.295 Q1739.63 787.776 1736.91 787.776 Q1734.99 787.776 1732.84 788.445 Q1730.72 789.113 1728.28 790.47 L1728.28 786.338 Q1730.76 785.346 1732.9 784.839 Q1735.05 784.333 1736.83 784.333 Q1741.53 784.333 1744.33 786.683 Q1747.12 789.032 1747.12 792.962 Q1747.12 794.825 1746.41 796.506 Q1745.72 798.167 1743.88 800.435 Q1743.37 801.023 1740.66 803.838 Q1737.95 806.633 1733 811.677 Z" fill="#000000" fill-rule="evenodd" fill-opacity="1" /><path clip-path="url(#clip890)" d="M1506.66 380.489 L1520.94 380.489 L1520.94 383.932 L1501.73 383.932 L1501.73 380.489 Q1504.06 378.078 1508.07 374.027 Q1512.11 369.956 1513.14 368.781 Q1515.1 366.574 1515.87 365.055 Q1516.66 363.515 1516.66 362.037 Q1516.66 359.626 1514.96 358.107 Q1513.28 356.588 1510.57 356.588 Q1508.64 356.588 1506.49 357.257 Q1504.37 357.925 1501.94 359.282 L1501.94 355.15 Q1504.41 354.158 1506.56 353.651 Q1508.7 353.145 1510.48 353.145 Q1515.18 353.145 1517.98 355.495 Q1520.77 357.844 1520.77 361.773 Q1520.77 363.637 1520.07 365.318 Q1519.38 366.979 1517.53 369.247 Q1517.03 369.835 1514.31 372.65 Q1511.6 375.445 1506.66 380.489 Z" fill="#000000" fill-rule="evenodd" fill-opacity="1" /><path clip-path="url(#clip890)" d="M1530.23 380.489 L1536.92 380.489 L1536.92 357.419 L1529.65 358.877 L1529.65 355.15 L1536.88 353.692 L1540.97 353.692 L1540.97 380.489 L1547.65 380.489 L1547.65 383.932 L1530.23 383.932 L1530.23 380.489 Z" fill="#000000" fill-rule="evenodd" fill-opacity="1" /><path clip-path="url(#clip890)" d="M1024.39 276.809 L1024.39 273.082 Q1025.93 273.812 1027.51 274.196 Q1029.09 274.581 1030.61 274.581 Q1034.66 274.581 1036.78 271.867 Q1038.93 269.133 1039.23 263.583 Q1038.06 265.325 1036.26 266.257 Q1034.45 267.188 1032.27 267.188 Q1027.73 267.188 1025.08 264.454 Q1022.44 261.699 1022.44 256.94 Q1022.44 252.281 1025.2 249.466 Q1027.95 246.65 1032.53 246.65 Q1037.78 246.65 1040.53 250.681 Q1043.31 254.691 1043.31 262.348 Q1043.31 269.497 1039.9 273.771 Q1036.52 278.025 1030.79 278.025 Q1029.25 278.025 1027.67 277.721 Q1026.09 277.417 1024.39 276.809 M1032.53 263.988 Q1035.28 263.988 1036.88 262.105 Q1038.51 260.221 1038.51 256.94 Q1038.51 253.679 1036.88 251.795 Q1035.28 249.891 1032.53 249.891 Q1029.78 249.891 1028.16 251.795 Q1026.56 253.679 1026.56 256.94 Q1026.56 260.221 1028.16 262.105 Q1029.78 263.988 1032.53 263.988 Z" fill="#000000" fill-rule="evenodd" fill-opacity="1" /><path clip-path="url(#clip890)" d="M1059.41 263.077 Q1056.49 263.077 1054.81 264.636 Q1053.15 266.196 1053.15 268.93 Q1053.15 271.665 1054.81 273.224 Q1056.49 274.784 1059.41 274.784 Q1062.32 274.784 1064.01 273.224 Q1065.69 271.644 1065.69 268.93 Q1065.69 266.196 1064.01 264.636 Q1062.34 263.077 1059.41 263.077 M1055.32 261.335 Q1052.68 260.687 1051.2 258.884 Q1049.75 257.081 1049.75 254.489 Q1049.75 250.863 1052.32 248.757 Q1054.91 246.65 1059.41 246.65 Q1063.92 246.65 1066.5 248.757 Q1069.07 250.863 1069.07 254.489 Q1069.07 257.081 1067.59 258.884 Q1066.13 260.687 1063.52 261.335 Q1066.48 262.024 1068.12 264.029 Q1069.78 266.034 1069.78 268.93 Q1069.78 273.326 1067.08 275.675 Q1064.41 278.025 1059.41 278.025 Q1054.4 278.025 1051.71 275.675 Q1049.04 273.326 1049.04 268.93 Q1049.04 266.034 1050.7 264.029 Q1052.36 262.024 1055.32 261.335 M1053.82 254.874 Q1053.82 257.223 1055.28 258.54 Q1056.75 259.856 1059.41 259.856 Q1062.04 259.856 1063.52 258.54 Q1065.02 257.223 1065.02 254.874 Q1065.02 252.524 1063.52 251.208 Q1062.04 249.891 1059.41 249.891 Q1056.75 249.891 1055.28 251.208 Q1053.82 252.524 1053.82 254.874 Z" fill="#000000" fill-rule="evenodd" fill-opacity="1" /><path clip-path="url(#clip890)" d="M627.409 572.385 L634.093 572.385 L634.093 549.315 L626.821 550.774 L626.821 547.047 L634.052 545.589 L638.143 545.589 L638.143 572.385 L644.827 572.385 L644.827 575.829 L627.409 575.829 L627.409 572.385 Z" fill="#000000" fill-rule="evenodd" fill-opacity="1" /><path clip-path="url(#clip890)" d="M653.132 545.589 L669.194 545.589 L669.194 549.032 L656.879 549.032 L656.879 556.445 Q657.77 556.141 658.661 555.999 Q659.552 555.837 660.444 555.837 Q665.507 555.837 668.464 558.612 Q671.422 561.387 671.422 566.127 Q671.422 571.008 668.383 573.722 Q665.345 576.416 659.816 576.416 Q657.912 576.416 655.927 576.092 Q653.962 575.768 651.856 575.12 L651.856 571.008 Q653.679 572.001 655.623 572.487 Q657.568 572.973 659.735 572.973 Q663.239 572.973 665.284 571.13 Q667.33 569.286 667.33 566.127 Q667.33 562.967 665.284 561.124 Q663.239 559.281 659.735 559.281 Q658.094 559.281 656.454 559.645 Q654.833 560.01 653.132 560.78 L653.132 545.589 Z" fill="#000000" fill-rule="evenodd" fill-opacity="1" /><path clip-path="url(#clip890)" d="M679.523 545.589 L695.585 545.589 L695.585 549.032 L683.271 549.032 L683.271 556.445 Q684.162 556.141 685.053 555.999 Q685.944 555.837 686.835 555.837 Q691.899 555.837 694.856 558.612 Q697.813 561.387 697.813 566.127 Q697.813 571.008 694.775 573.722 Q691.737 576.416 686.207 576.416 Q684.303 576.416 682.319 576.092 Q680.354 575.768 678.247 575.12 L678.247 571.008 Q680.07 572.001 682.015 572.487 Q683.959 572.973 686.126 572.973 Q689.63 572.973 691.676 571.13 Q693.722 569.286 693.722 566.127 Q693.722 562.967 691.676 561.124 Q689.63 559.281 686.126 559.281 Q684.486 559.281 682.845 559.645 Q681.225 560.01 679.523 560.78 L679.523 545.589 Z" fill="#000000" fill-rule="evenodd" fill-opacity="1" /><path clip-path="url(#clip890)" d="M639.956 1050.97 L646.64 1050.97 L646.64 1027.9 L639.369 1029.36 L639.369 1025.63 L646.6 1024.17 L650.691 1024.17 L650.691 1050.97 L657.375 1050.97 L657.375 1054.41 L639.956 1054.41 L639.956 1050.97 Z" fill="#000000" fill-rule="evenodd" fill-opacity="1" /><path clip-path="url(#clip890)" d="M676.88 1027.74 L666.55 1043.88 L676.88 1043.88 L676.88 1027.74 M675.807 1024.17 L680.951 1024.17 L680.951 1043.88 L685.266 1043.88 L685.266 1047.28 L680.951 1047.28 L680.951 1054.41 L676.88 1054.41 L676.88 1047.28 L663.229 1047.28 L663.229 1043.33 L675.807 1024.17 Z" fill="#000000" fill-rule="evenodd" fill-opacity="1" /><path clip-path="url(#clip890)" d="M1049.83 1336.5 Q1052.76 1337.13 1054.4 1339.11 Q1056.07 1341.1 1056.07 1344.01 Q1056.07 1348.49 1052.99 1350.94 Q1049.91 1353.39 1044.24 1353.39 Q1042.33 1353.39 1040.31 1353.01 Q1038.3 1352.64 1036.16 1351.89 L1036.16 1347.94 Q1037.86 1348.93 1039.88 1349.44 Q1041.91 1349.95 1044.12 1349.95 Q1047.96 1349.95 1049.97 1348.43 Q1051.99 1346.91 1051.99 1344.01 Q1051.99 1341.34 1050.11 1339.84 Q1048.25 1338.32 1044.91 1338.32 L1041.38 1338.32 L1041.38 1334.96 L1045.07 1334.96 Q1048.09 1334.96 1049.69 1333.76 Q1051.29 1332.55 1051.29 1330.28 Q1051.29 1327.95 1049.62 1326.71 Q1047.98 1325.46 1044.91 1325.46 Q1043.22 1325.46 1041.3 1325.82 Q1039.38 1326.19 1037.07 1326.96 L1037.07 1323.31 Q1039.4 1322.66 1041.42 1322.34 Q1043.47 1322.02 1045.27 1322.02 Q1049.93 1322.02 1052.64 1324.14 Q1055.36 1326.25 1055.36 1329.85 Q1055.36 1332.37 1053.92 1334.11 Q1052.48 1335.83 1049.83 1336.5 Z" fill="#000000" fill-rule="evenodd" fill-opacity="1" /><path clip-path="url(#clip890)" d="M1516.28 1242.86 L1522.96 1242.86 L1522.96 1219.79 L1515.69 1221.25 L1515.69 1217.53 L1522.92 1216.07 L1527.01 1216.07 L1527.01 1242.86 L1533.7 1242.86 L1533.7 1246.31 L1516.28 1246.31 L1516.28 1242.86 Z" fill="#000000" fill-rule="evenodd" fill-opacity="1" /></svg>
