<?xml version="1.0" encoding="utf-8"?>
<svg xmlns="http://www.w3.org/2000/svg" xmlns:xlink="http://www.w3.org/1999/xlink" width="600" height="400" viewBox="0 0 2400 1600">
<defs>
  <clipPath id="clip210">
    <rect x="0" y="0" width="2400" height="1600"/>
  </clipPath>
</defs>
<path clip-path="url(#clip210)" d="
M0 1600 L2400 1600 L2400 0 L0 0  Z
  " fill="#ffffff" fill-rule="evenodd" fill-opacity="1"/>
<defs>
  <clipPath id="clip211">
    <rect x="480" y="0" width="1681" height="1600"/>
  </clipPath>
</defs>
<path clip-path="url(#clip210)" d="
M447.244 1552.76 L1952.76 1552.76 L1952.76 47.2441 L447.244 47.2441  Z
  " fill="#ffffff" fill-rule="evenodd" fill-opacity="1"/>
<defs>
  <clipPath id="clip212">
    <rect x="447" y="47" width="1507" height="1507"/>
  </clipPath>
</defs>
<polyline clip-path="url(#clip212)" style="stroke:#000000; stroke-linecap:butt; stroke-linejoin:round; stroke-width:4; stroke-opacity:1; fill:none" points="
  1737.68,800 1073.14,289.221 
  "/>
<polyline clip-path="url(#clip212)" style="stroke:#000000; stroke-linecap:butt; stroke-linejoin:round; stroke-width:4; stroke-opacity:1; fill:none" points="
  1090.72,325.431 1073.14,289.221 1112.66,296.889 
  "/>
<polyline clip-path="url(#clip212)" style="stroke:#000000; stroke-linecap:butt; stroke-linejoin:round; stroke-width:4; stroke-opacity:1; fill:none" points="
  1073.14,289.221 1737.68,800 
  "/>
<polyline clip-path="url(#clip212)" style="stroke:#000000; stroke-linecap:butt; stroke-linejoin:round; stroke-width:4; stroke-opacity:1; fill:none" points="
  1737.68,800 1103.11,1303.62 
  "/>
<polyline clip-path="url(#clip212)" style="stroke:#000000; stroke-linecap:butt; stroke-linejoin:round; stroke-width:4; stroke-opacity:1; fill:none" points="
  1142.5,1295.34 1103.11,1303.62 1120.12,1267.14 
  "/>
<polyline clip-path="url(#clip212)" style="stroke:#000000; stroke-linecap:butt; stroke-linejoin:round; stroke-width:4; stroke-opacity:1; fill:none" points="
  1103.11,1303.62 1737.68,800 
  "/>
<polyline clip-path="url(#clip212)" style="stroke:#000000; stroke-linecap:butt; stroke-linejoin:round; stroke-width:4; stroke-opacity:1; fill:none" points="
  1737.68,800 1566.39,1179.5 
  "/>
<polyline clip-path="url(#clip212)" style="stroke:#000000; stroke-linecap:butt; stroke-linejoin:round; stroke-width:4; stroke-opacity:1; fill:none" points="
  1597.6,1154.1 1566.39,1179.5 1564.79,1139.29 
  "/>
<polyline clip-path="url(#clip212)" style="stroke:#000000; stroke-linecap:butt; stroke-linejoin:round; stroke-width:4; stroke-opacity:1; fill:none" points="
  1566.39,1179.5 1737.68,800 
  "/>
<polyline clip-path="url(#clip212)" style="stroke:#000000; stroke-linecap:butt; stroke-linejoin:round; stroke-width:4; stroke-opacity:1; fill:none" points="
  1524.69,368.812 1719.16,723.935 
  "/>
<polyline clip-path="url(#clip212)" style="stroke:#000000; stroke-linecap:butt; stroke-linejoin:round; stroke-width:4; stroke-opacity:1; fill:none" points="
  1717.66,683.714 1719.16,723.935 1686.08,701.005 
  "/>
<polyline clip-path="url(#clip212)" style="stroke:#000000; stroke-linecap:butt; stroke-linejoin:round; stroke-width:4; stroke-opacity:1; fill:none" points="
  1719.16,723.935 1524.69,368.812 
  "/>
<polyline clip-path="url(#clip212)" style="stroke:#000000; stroke-linecap:butt; stroke-linejoin:round; stroke-width:4; stroke-opacity:1; fill:none" points="
  1524.69,368.812 1080.7,278.385 
  "/>
<polyline clip-path="url(#clip212)" style="stroke:#000000; stroke-linecap:butt; stroke-linejoin:round; stroke-width:4; stroke-opacity:1; fill:none" points="
  1112.38,303.208 1080.7,278.385 1119.57,267.932 
  "/>
<polyline clip-path="url(#clip212)" style="stroke:#000000; stroke-linecap:butt; stroke-linejoin:round; stroke-width:4; stroke-opacity:1; fill:none" points="
  1080.7,278.385 1524.69,368.812 
  "/>
<polyline clip-path="url(#clip212)" style="stroke:#000000; stroke-linecap:butt; stroke-linejoin:round; stroke-width:4; stroke-opacity:1; fill:none" points="
  1046.11,262.317 696.773,544.355 
  "/>
<polyline clip-path="url(#clip212)" style="stroke:#000000; stroke-linecap:butt; stroke-linejoin:round; stroke-width:4; stroke-opacity:1; fill:none" points="
  736.09,535.746 696.773,544.355 713.476,507.735 
  "/>
<polyline clip-path="url(#clip212)" style="stroke:#000000; stroke-linecap:butt; stroke-linejoin:round; stroke-width:4; stroke-opacity:1; fill:none" points="
  696.773,544.355 1046.11,262.317 
  "/>
<polyline clip-path="url(#clip212)" style="stroke:#000000; stroke-linecap:butt; stroke-linejoin:round; stroke-width:4; stroke-opacity:1; fill:none" points="
  662.317,560.709 1663.28,775.652 
  "/>
<polyline clip-path="url(#clip212)" style="stroke:#000000; stroke-linecap:butt; stroke-linejoin:round; stroke-width:4; stroke-opacity:1; fill:none" points="
  1631.86,750.495 1663.28,775.652 1624.3,785.692 
  "/>
<polyline clip-path="url(#clip212)" style="stroke:#000000; stroke-linecap:butt; stroke-linejoin:round; stroke-width:4; stroke-opacity:1; fill:none" points="
  1663.28,775.652 662.317,560.709 
  "/>
<polyline clip-path="url(#clip212)" style="stroke:#000000; stroke-linecap:butt; stroke-linejoin:round; stroke-width:4; stroke-opacity:1; fill:none" points="
  662.317,560.709 670.679,1002.08 
  "/>
<polyline clip-path="url(#clip212)" style="stroke:#000000; stroke-linecap:butt; stroke-linejoin:round; stroke-width:4; stroke-opacity:1; fill:none" points="
  687.994,965.745 670.679,1002.08 652,966.427 
  "/>
<polyline clip-path="url(#clip212)" style="stroke:#000000; stroke-linecap:butt; stroke-linejoin:round; stroke-width:4; stroke-opacity:1; fill:none" points="
  670.679,1002.08 662.317,560.709 
  "/>
<polyline clip-path="url(#clip212)" style="stroke:#000000; stroke-linecap:butt; stroke-linejoin:round; stroke-width:4; stroke-opacity:1; fill:none" points="
  662.317,1039.29 1659.97,809.5 
  "/>
<polyline clip-path="url(#clip212)" style="stroke:#000000; stroke-linecap:butt; stroke-linejoin:round; stroke-width:4; stroke-opacity:1; fill:none" points="
  1620.85,800.04 1659.97,809.5 1628.93,835.121 
  "/>
<polyline clip-path="url(#clip212)" style="stroke:#000000; stroke-linecap:butt; stroke-linejoin:round; stroke-width:4; stroke-opacity:1; fill:none" points="
  1659.97,809.5 662.317,1039.29 
  "/>
<polyline clip-path="url(#clip212)" style="stroke:#000000; stroke-linecap:butt; stroke-linejoin:round; stroke-width:4; stroke-opacity:1; fill:none" points="
  662.317,1039.29 1492.43,389.159 
  "/>
<polyline clip-path="url(#clip212)" style="stroke:#000000; stroke-linecap:butt; stroke-linejoin:round; stroke-width:4; stroke-opacity:1; fill:none" points="
  1452.99,397.185 1492.43,389.159 1475.19,425.528 
  "/>
<polyline clip-path="url(#clip212)" style="stroke:#000000; stroke-linecap:butt; stroke-linejoin:round; stroke-width:4; stroke-opacity:1; fill:none" points="
  1492.43,389.159 662.317,1039.29 
  "/>
<polyline clip-path="url(#clip212)" style="stroke:#000000; stroke-linecap:butt; stroke-linejoin:round; stroke-width:4; stroke-opacity:1; fill:none" points="
  1046.11,1337.68 1504.5,401.167 
  "/>
<polyline clip-path="url(#clip212)" style="stroke:#000000; stroke-linecap:butt; stroke-linejoin:round; stroke-width:4; stroke-opacity:1; fill:none" points="
  1472.51,425.588 1504.5,401.167 1504.84,441.414 
  "/>
<polyline clip-path="url(#clip212)" style="stroke:#000000; stroke-linecap:butt; stroke-linejoin:round; stroke-width:4; stroke-opacity:1; fill:none" points="
  1504.5,401.167 1046.11,1337.68 
  "/>
<path clip-path="url(#clip212)" d="
M1815.97 800 L1815.72 793.78 L1814.98 787.6 L1813.75 781.497 L1812.04 775.512 L1809.86 769.682 L1807.22 764.043 L1804.15 758.632 L1800.65 753.482 L1796.76 748.626 
  L1792.49 744.095 L1787.87 739.918 L1782.94 736.12 L1777.72 732.727 L1772.25 729.758 L1766.56 727.234 L1760.69 725.17 L1754.67 723.578 L1748.54 722.47 L1742.35 721.853 
  L1736.13 721.729 L1729.91 722.1 L1723.75 722.964 L1717.67 724.314 L1711.72 726.143 L1705.94 728.439 L1700.35 731.188 L1695 734.372 L1689.92 737.97 L1685.14 741.961 
  L1680.7 746.318 L1676.61 751.015 L1672.92 756.022 L1669.63 761.307 L1666.77 766.836 L1664.36 772.575 L1662.41 778.488 L1660.94 784.536 L1659.95 790.682 L1659.46 796.888 
  L1659.46 803.112 L1659.95 809.318 L1660.94 815.464 L1662.41 821.512 L1664.36 827.425 L1666.77 833.164 L1669.63 838.693 L1672.92 843.978 L1676.61 848.985 L1680.7 853.682 
  L1685.14 858.039 L1689.92 862.03 L1695 865.628 L1700.35 868.812 L1705.94 871.561 L1711.72 873.857 L1717.67 875.686 L1723.75 877.036 L1729.91 877.9 L1736.13 878.271 
  L1742.35 878.147 L1748.54 877.53 L1754.67 876.422 L1760.69 874.83 L1766.56 872.766 L1772.25 870.242 L1777.72 867.273 L1782.94 863.88 L1787.87 860.082 L1792.49 855.905 
  L1796.76 851.374 L1800.65 846.518 L1804.15 841.368 L1807.22 835.957 L1809.86 830.318 L1812.04 824.488 L1813.75 818.503 L1814.98 812.4 L1815.72 806.22 L1815.97 800 
  L1815.97 800  Z
  " fill="#e26f46" fill-rule="evenodd" fill-opacity="1"/>
<polyline clip-path="url(#clip212)" style="stroke:#000000; stroke-linecap:butt; stroke-linejoin:round; stroke-width:4; stroke-opacity:1; fill:none" points="
  1815.97,800 1815.72,793.78 1814.98,787.6 1813.75,781.497 1812.04,775.512 1809.86,769.682 1807.22,764.043 1804.15,758.632 1800.65,753.482 1796.76,748.626 
  1792.49,744.095 1787.87,739.918 1782.94,736.12 1777.72,732.727 1772.25,729.758 1766.56,727.234 1760.69,725.17 1754.67,723.578 1748.54,722.47 1742.35,721.853 
  1736.13,721.729 1729.91,722.1 1723.75,722.964 1717.67,724.314 1711.72,726.143 1705.94,728.439 1700.35,731.188 1695,734.372 1689.92,737.97 1685.14,741.961 
  1680.7,746.318 1676.61,751.015 1672.92,756.022 1669.63,761.307 1666.77,766.836 1664.36,772.575 1662.41,778.488 1660.94,784.536 1659.95,790.682 1659.46,796.888 
  1659.46,803.112 1659.95,809.318 1660.94,815.464 1662.41,821.512 1664.36,827.425 1666.77,833.164 1669.63,838.693 1672.92,843.978 1676.61,848.985 1680.7,853.682 
  1685.14,858.039 1689.92,862.03 1695,865.628 1700.35,868.812 1705.94,871.561 1711.72,873.857 1717.67,875.686 1723.75,877.036 1729.91,877.9 1736.13,878.271 
  1742.35,878.147 1748.54,877.53 1754.67,876.422 1760.69,874.83 1766.56,872.766 1772.25,870.242 1777.72,867.273 1782.94,863.88 1787.87,860.082 1792.49,855.905 
  1796.76,851.374 1800.65,846.518 1804.15,841.368 1807.22,835.957 1809.86,830.318 1812.04,824.488 1813.75,818.503 1814.98,812.4 1815.72,806.22 1815.97,800 
  
  "/>
<path clip-path="url(#clip212)" d="
M1562.83 368.812 L1562.71 365.782 L1562.35 362.771 L1561.75 359.798 L1560.92 356.882 L1559.86 354.042 L1558.57 351.294 L1557.07 348.658 L1555.37 346.149 L1553.47 343.784 
  L1551.39 341.576 L1549.14 339.541 L1546.74 337.691 L1544.2 336.038 L1541.53 334.592 L1538.76 333.362 L1535.9 332.356 L1532.97 331.581 L1529.98 331.041 L1526.97 330.74 
  L1523.94 330.68 L1520.91 330.861 L1517.9 331.281 L1514.94 331.939 L1512.05 332.83 L1509.23 333.949 L1506.51 335.288 L1503.9 336.839 L1501.43 338.592 L1499.1 340.536 
  L1496.93 342.659 L1494.94 344.948 L1493.14 347.387 L1491.54 349.961 L1490.15 352.655 L1488.97 355.451 L1488.02 358.332 L1487.31 361.278 L1486.82 364.273 L1486.58 367.296 
  L1486.58 370.328 L1486.82 373.351 L1487.31 376.346 L1488.02 379.292 L1488.97 382.173 L1490.15 384.969 L1491.54 387.662 L1493.14 390.237 L1494.94 392.676 L1496.93 394.964 
  L1499.1 397.087 L1501.43 399.032 L1503.9 400.785 L1506.51 402.336 L1509.23 403.675 L1512.05 404.793 L1514.94 405.684 L1517.9 406.342 L1520.91 406.763 L1523.94 406.944 
  L1526.97 406.884 L1529.98 406.583 L1532.97 406.043 L1535.9 405.268 L1538.76 404.262 L1541.53 403.032 L1544.2 401.586 L1546.74 399.933 L1549.14 398.083 L1551.39 396.047 
  L1553.47 393.84 L1555.37 391.474 L1557.07 388.966 L1558.57 386.329 L1559.86 383.582 L1560.92 380.742 L1561.75 377.826 L1562.35 374.853 L1562.71 371.842 L1562.83 368.812 
  L1562.83 368.812  Z
  " fill="#009af9" fill-rule="evenodd" fill-opacity="1"/>
<polyline clip-path="url(#clip212)" style="stroke:#000000; stroke-linecap:butt; stroke-linejoin:round; stroke-width:4; stroke-opacity:1; fill:none" points="
  1562.83,368.812 1562.71,365.782 1562.35,362.771 1561.75,359.798 1560.92,356.882 1559.86,354.042 1558.57,351.294 1557.07,348.658 1555.37,346.149 1553.47,343.784 
  1551.39,341.576 1549.14,339.541 1546.74,337.691 1544.2,336.038 1541.53,334.592 1538.76,333.362 1535.9,332.356 1532.97,331.581 1529.98,331.041 1526.97,330.74 
  1523.94,330.68 1520.91,330.861 1517.9,331.281 1514.94,331.939 1512.05,332.83 1509.23,333.949 1506.51,335.288 1503.9,336.839 1501.43,338.592 1499.1,340.536 
  1496.93,342.659 1494.94,344.948 1493.14,347.387 1491.54,349.961 1490.15,352.655 1488.97,355.451 1488.02,358.332 1487.31,361.278 1486.82,364.273 1486.58,367.296 
  1486.58,370.328 1486.82,373.351 1487.31,376.346 1488.02,379.292 1488.97,382.173 1490.15,384.969 1491.54,387.662 1493.14,390.237 1494.94,392.676 1496.93,394.964 
  1499.1,397.087 1501.43,399.032 1503.9,400.785 1506.51,402.336 1509.23,403.675 1512.05,404.793 1514.94,405.684 1517.9,406.342 1520.91,406.763 1523.94,406.944 
  1526.97,406.884 1529.98,406.583 1532.97,406.043 1535.9,405.268 1538.76,404.262 1541.53,403.032 1544.2,401.586 1546.74,399.933 1549.14,398.083 1551.39,396.047 
  1553.47,393.84 1555.37,391.474 1557.07,388.966 1558.57,386.329 1559.86,383.582 1560.92,380.742 1561.75,377.826 1562.35,374.853 1562.71,371.842 1562.83,368.812 
  
  "/>
<path clip-path="url(#clip212)" d="
M1084.25 262.317 L1084.13 259.287 L1083.77 256.276 L1083.17 253.303 L1082.34 250.387 L1081.27 247.547 L1079.99 244.8 L1078.49 242.163 L1076.79 239.655 L1074.89 237.289 
  L1072.81 235.082 L1070.56 233.046 L1068.16 231.196 L1065.62 229.543 L1062.95 228.097 L1060.18 226.867 L1057.32 225.861 L1054.39 225.086 L1051.4 224.546 L1048.38 224.245 
  L1045.35 224.185 L1042.33 224.366 L1039.32 224.787 L1036.36 225.445 L1033.46 226.336 L1030.64 227.454 L1027.92 228.793 L1025.32 230.344 L1022.84 232.098 L1020.52 234.042 
  L1018.35 236.165 L1016.36 238.453 L1014.56 240.892 L1012.96 243.467 L1011.56 246.161 L1010.39 248.956 L1009.44 251.837 L1008.72 254.784 L1008.24 257.778 L1008 260.801 
  L1008 263.834 L1008.24 266.857 L1008.72 269.851 L1009.44 272.798 L1010.39 275.678 L1011.56 278.474 L1012.96 281.168 L1014.56 283.742 L1016.36 286.181 L1018.35 288.47 
  L1020.52 290.593 L1022.84 292.537 L1025.32 294.29 L1027.92 295.841 L1030.64 297.18 L1033.46 298.299 L1036.36 299.19 L1039.32 299.848 L1042.33 300.269 L1045.35 300.449 
  L1048.38 300.389 L1051.4 300.088 L1054.39 299.548 L1057.32 298.773 L1060.18 297.767 L1062.95 296.538 L1065.62 295.091 L1068.16 293.438 L1070.56 291.588 L1072.81 289.553 
  L1074.89 287.345 L1076.79 284.98 L1078.49 282.471 L1079.99 279.835 L1081.27 277.088 L1082.34 274.247 L1083.17 271.331 L1083.77 268.358 L1084.13 265.347 L1084.25 262.317 
  L1084.25 262.317  Z
  " fill="#009af9" fill-rule="evenodd" fill-opacity="1"/>
<polyline clip-path="url(#clip212)" style="stroke:#000000; stroke-linecap:butt; stroke-linejoin:round; stroke-width:4; stroke-opacity:1; fill:none" points="
  1084.25,262.317 1084.13,259.287 1083.77,256.276 1083.17,253.303 1082.34,250.387 1081.27,247.547 1079.99,244.8 1078.49,242.163 1076.79,239.655 1074.89,237.289 
  1072.81,235.082 1070.56,233.046 1068.16,231.196 1065.62,229.543 1062.95,228.097 1060.18,226.867 1057.32,225.861 1054.39,225.086 1051.4,224.546 1048.38,224.245 
  1045.35,224.185 1042.33,224.366 1039.32,224.787 1036.36,225.445 1033.46,226.336 1030.64,227.454 1027.92,228.793 1025.32,230.344 1022.84,232.098 1020.52,234.042 
  1018.35,236.165 1016.36,238.453 1014.56,240.892 1012.96,243.467 1011.56,246.161 1010.39,248.956 1009.44,251.837 1008.72,254.784 1008.24,257.778 1008,260.801 
  1008,263.834 1008.24,266.857 1008.72,269.851 1009.44,272.798 1010.39,275.678 1011.56,278.474 1012.96,281.168 1014.56,283.742 1016.36,286.181 1018.35,288.47 
  1020.52,290.593 1022.84,292.537 1025.32,294.29 1027.92,295.841 1030.64,297.18 1033.46,298.299 1036.36,299.19 1039.32,299.848 1042.33,300.269 1045.35,300.449 
  1048.38,300.389 1051.4,300.088 1054.39,299.548 1057.32,298.773 1060.18,297.767 1062.95,296.538 1065.62,295.091 1068.16,293.438 1070.56,291.588 1072.81,289.553 
  1074.89,287.345 1076.79,284.98 1078.49,282.471 1079.99,279.835 1081.27,277.088 1082.34,274.247 1083.17,271.331 1083.77,268.358 1084.13,265.347 1084.25,262.317 
  
  "/>
<path clip-path="url(#clip212)" d="
M700.457 560.709 L700.336 557.678 L699.975 554.667 L699.376 551.695 L698.543 548.779 L697.481 545.938 L696.196 543.191 L694.697 540.555 L692.994 538.046 L691.096 535.68 
  L689.017 533.473 L686.768 531.438 L684.365 529.588 L681.823 527.934 L679.158 526.488 L676.386 525.258 L673.525 524.253 L670.593 523.478 L667.609 522.938 L664.591 522.637 
  L661.559 522.577 L658.532 522.757 L655.528 523.178 L652.568 523.836 L649.669 524.727 L646.851 525.846 L644.13 527.185 L641.524 528.736 L639.049 530.489 L636.722 532.433 
  L634.556 534.556 L632.566 536.844 L630.764 539.284 L629.162 541.858 L627.769 544.552 L626.594 547.348 L625.646 550.228 L624.929 553.175 L624.449 556.169 L624.208 559.192 
  L624.208 562.225 L624.449 565.248 L624.929 568.242 L625.646 571.189 L626.594 574.069 L627.769 576.865 L629.162 579.559 L630.764 582.134 L632.566 584.573 L634.556 586.861 
  L636.722 588.984 L639.049 590.928 L641.524 592.681 L644.13 594.232 L646.851 595.571 L649.669 596.69 L652.568 597.581 L655.528 598.239 L658.532 598.66 L661.559 598.841 
  L664.591 598.78 L667.609 598.479 L670.593 597.94 L673.525 597.164 L676.386 596.159 L679.158 594.929 L681.823 593.483 L684.365 591.83 L686.768 589.979 L689.017 587.944 
  L691.096 585.737 L692.994 583.371 L694.697 580.862 L696.196 578.226 L697.481 575.479 L698.543 572.639 L699.376 569.723 L699.975 566.75 L700.336 563.739 L700.457 560.709 
  L700.457 560.709  Z
  " fill="#009af9" fill-rule="evenodd" fill-opacity="1"/>
<polyline clip-path="url(#clip212)" style="stroke:#000000; stroke-linecap:butt; stroke-linejoin:round; stroke-width:4; stroke-opacity:1; fill:none" points="
  700.457,560.709 700.336,557.678 699.975,554.667 699.376,551.695 698.543,548.779 697.481,545.938 696.196,543.191 694.697,540.555 692.994,538.046 691.096,535.68 
  689.017,533.473 686.768,531.438 684.365,529.588 681.823,527.934 679.158,526.488 676.386,525.258 673.525,524.253 670.593,523.478 667.609,522.938 664.591,522.637 
  661.559,522.577 658.532,522.757 655.528,523.178 652.568,523.836 649.669,524.727 646.851,525.846 644.13,527.185 641.524,528.736 639.049,530.489 636.722,532.433 
  634.556,534.556 632.566,536.844 630.764,539.284 629.162,541.858 627.769,544.552 626.594,547.348 625.646,550.228 624.929,553.175 624.449,556.169 624.208,559.192 
  624.208,562.225 624.449,565.248 624.929,568.242 625.646,571.189 626.594,574.069 627.769,576.865 629.162,579.559 630.764,582.134 632.566,584.573 634.556,586.861 
  636.722,588.984 639.049,590.928 641.524,592.681 644.13,594.232 646.851,595.571 649.669,596.69 652.568,597.581 655.528,598.239 658.532,598.66 661.559,598.841 
  664.591,598.78 667.609,598.479 670.593,597.94 673.525,597.164 676.386,596.159 679.158,594.929 681.823,593.483 684.365,591.83 686.768,589.979 689.017,587.944 
  691.096,585.737 692.994,583.371 694.697,580.862 696.196,578.226 697.481,575.479 698.543,572.639 699.376,569.723 699.975,566.75 700.336,563.739 700.457,560.709 
  
  "/>
<path clip-path="url(#clip212)" d="
M700.457 1039.29 L700.336 1036.26 L699.975 1033.25 L699.376 1030.28 L698.543 1027.36 L697.481 1024.52 L696.196 1021.77 L694.697 1019.14 L692.994 1016.63 L691.096 1014.26 
  L689.017 1012.06 L686.768 1010.02 L684.365 1008.17 L681.823 1006.52 L679.158 1005.07 L676.386 1003.84 L673.525 1002.84 L670.593 1002.06 L667.609 1001.52 L664.591 1001.22 
  L661.559 1001.16 L658.532 1001.34 L655.528 1001.76 L652.568 1002.42 L649.669 1003.31 L646.851 1004.43 L644.13 1005.77 L641.524 1007.32 L639.049 1009.07 L636.722 1011.02 
  L634.556 1013.14 L632.566 1015.43 L630.764 1017.87 L629.162 1020.44 L627.769 1023.13 L626.594 1025.93 L625.646 1028.81 L624.929 1031.76 L624.449 1034.75 L624.208 1037.78 
  L624.208 1040.81 L624.449 1043.83 L624.929 1046.82 L625.646 1049.77 L626.594 1052.65 L627.769 1055.45 L629.162 1058.14 L630.764 1060.72 L632.566 1063.16 L634.556 1065.44 
  L636.722 1067.57 L639.049 1069.51 L641.524 1071.26 L644.13 1072.82 L646.851 1074.15 L649.669 1075.27 L652.568 1076.16 L655.528 1076.82 L658.532 1077.24 L661.559 1077.42 
  L664.591 1077.36 L667.609 1077.06 L670.593 1076.52 L673.525 1075.75 L676.386 1074.74 L679.158 1073.51 L681.823 1072.07 L684.365 1070.41 L686.768 1068.56 L689.017 1066.53 
  L691.096 1064.32 L692.994 1061.95 L694.697 1059.45 L696.196 1056.81 L697.481 1054.06 L698.543 1051.22 L699.376 1048.31 L699.975 1045.33 L700.336 1042.32 L700.457 1039.29 
  L700.457 1039.29  Z
  " fill="#009af9" fill-rule="evenodd" fill-opacity="1"/>
<polyline clip-path="url(#clip212)" style="stroke:#000000; stroke-linecap:butt; stroke-linejoin:round; stroke-width:4; stroke-opacity:1; fill:none" points="
  700.457,1039.29 700.336,1036.26 699.975,1033.25 699.376,1030.28 698.543,1027.36 697.481,1024.52 696.196,1021.77 694.697,1019.14 692.994,1016.63 691.096,1014.26 
  689.017,1012.06 686.768,1010.02 684.365,1008.17 681.823,1006.52 679.158,1005.07 676.386,1003.84 673.525,1002.84 670.593,1002.06 667.609,1001.52 664.591,1001.22 
  661.559,1001.16 658.532,1001.34 655.528,1001.76 652.568,1002.42 649.669,1003.31 646.851,1004.43 644.13,1005.77 641.524,1007.32 639.049,1009.07 636.722,1011.02 
  634.556,1013.14 632.566,1015.43 630.764,1017.87 629.162,1020.44 627.769,1023.13 626.594,1025.93 625.646,1028.81 624.929,1031.76 624.449,1034.75 624.208,1037.78 
  624.208,1040.81 624.449,1043.83 624.929,1046.82 625.646,1049.77 626.594,1052.65 627.769,1055.45 629.162,1058.14 630.764,1060.72 632.566,1063.16 634.556,1065.44 
  636.722,1067.57 639.049,1069.51 641.524,1071.26 644.13,1072.82 646.851,1074.15 649.669,1075.27 652.568,1076.16 655.528,1076.82 658.532,1077.24 661.559,1077.42 
  664.591,1077.36 667.609,1077.06 670.593,1076.52 673.525,1075.75 676.386,1074.74 679.158,1073.51 681.823,1072.07 684.365,1070.41 686.768,1068.56 689.017,1066.53 
  691.096,1064.32 692.994,1061.95 694.697,1059.45 696.196,1056.81 697.481,1054.06 698.543,1051.22 699.376,1048.31 699.975,1045.33 700.336,1042.32 700.457,1039.29 
  
  "/>
<path clip-path="url(#clip212)" d="
M1112.52 1337.68 L1112.31 1332.41 L1111.68 1327.16 L1110.63 1321.99 L1109.18 1316.91 L1107.33 1311.97 L1105.1 1307.18 L1102.49 1302.59 L1099.52 1298.22 L1096.22 1294.11 
  L1092.6 1290.26 L1088.68 1286.72 L1084.5 1283.5 L1080.07 1280.62 L1075.43 1278.1 L1070.61 1275.96 L1065.62 1274.21 L1060.52 1272.86 L1055.32 1271.92 L1050.07 1271.4 
  L1044.79 1271.29 L1039.52 1271.61 L1034.29 1272.34 L1029.14 1273.48 L1024.09 1275.04 L1019.18 1276.98 L1014.44 1279.31 L1009.91 1282.01 L1005.6 1285.07 L1001.55 1288.45 
  L997.776 1292.15 L994.311 1296.13 L991.174 1300.38 L988.384 1304.86 L985.958 1309.55 L983.914 1314.42 L982.262 1319.44 L981.014 1324.57 L980.178 1329.78 L979.758 1335.04 
  L979.758 1340.32 L980.178 1345.59 L981.014 1350.8 L982.262 1355.93 L983.914 1360.95 L985.958 1365.81 L988.384 1370.5 L991.174 1374.99 L994.311 1379.23 L997.776 1383.22 
  L1001.55 1386.91 L1005.6 1390.3 L1009.91 1393.35 L1014.44 1396.05 L1019.18 1398.38 L1024.09 1400.33 L1029.14 1401.88 L1034.29 1403.03 L1039.52 1403.76 L1044.79 1404.07 
  L1050.07 1403.97 L1055.32 1403.45 L1060.52 1402.51 L1065.62 1401.16 L1070.61 1399.41 L1075.43 1397.26 L1080.07 1394.75 L1084.5 1391.87 L1088.68 1388.65 L1092.6 1385.1 
  L1096.22 1381.26 L1099.52 1377.14 L1102.49 1372.77 L1105.1 1368.18 L1107.33 1363.4 L1109.18 1358.45 L1110.63 1353.38 L1111.68 1348.2 L1112.31 1342.96 L1112.52 1337.68 
  L1112.52 1337.68  Z
  " fill="#009af9" fill-rule="evenodd" fill-opacity="1"/>
<polyline clip-path="url(#clip212)" style="stroke:#000000; stroke-linecap:butt; stroke-linejoin:round; stroke-width:4; stroke-opacity:1; fill:none" points="
  1112.52,1337.68 1112.31,1332.41 1111.68,1327.16 1110.63,1321.99 1109.18,1316.91 1107.33,1311.97 1105.1,1307.18 1102.49,1302.59 1099.52,1298.22 1096.22,1294.11 
  1092.6,1290.26 1088.68,1286.72 1084.5,1283.5 1080.07,1280.62 1075.43,1278.1 1070.61,1275.96 1065.62,1274.21 1060.52,1272.86 1055.32,1271.92 1050.07,1271.4 
  1044.79,1271.29 1039.52,1271.61 1034.29,1272.34 1029.14,1273.48 1024.09,1275.04 1019.18,1276.98 1014.44,1279.31 1009.91,1282.01 1005.6,1285.07 1001.55,1288.45 
  997.776,1292.15 994.311,1296.13 991.174,1300.38 988.384,1304.86 985.958,1309.55 983.914,1314.42 982.262,1319.44 981.014,1324.57 980.178,1329.78 979.758,1335.04 
  979.758,1340.32 980.178,1345.59 981.014,1350.8 982.262,1355.93 983.914,1360.95 985.958,1365.81 988.384,1370.5 991.174,1374.99 994.311,1379.23 997.776,1383.22 
  1001.55,1386.91 1005.6,1390.3 1009.91,1393.35 1014.44,1396.05 1019.18,1398.38 1024.09,1400.33 1029.14,1401.88 1034.29,1403.03 1039.52,1403.76 1044.79,1404.07 
  1050.07,1403.97 1055.32,1403.45 1060.52,1402.51 1065.62,1401.16 1070.61,1399.41 1075.43,1397.26 1080.07,1394.75 1084.5,1391.87 1088.68,1388.65 1092.6,1385.1 
  1096.22,1381.26 1099.52,1377.14 1102.49,1372.77 1105.1,1368.18 1107.33,1363.4 1109.18,1358.45 1110.63,1353.38 1111.68,1348.2 1112.31,1342.96 1112.52,1337.68 
  
  "/>
<path clip-path="url(#clip212)" d="
M1591.1 1231.19 L1590.89 1225.91 L1590.26 1220.67 L1589.22 1215.49 L1587.77 1210.42 L1585.92 1205.47 L1583.68 1200.69 L1581.07 1196.1 L1578.1 1191.73 L1574.8 1187.61 
  L1571.18 1183.77 L1567.27 1180.22 L1563.08 1177 L1558.66 1174.12 L1554.01 1171.61 L1549.19 1169.47 L1544.21 1167.71 L1539.1 1166.37 L1533.91 1165.43 L1528.65 1164.9 
  L1523.37 1164.8 L1518.1 1165.11 L1512.87 1165.84 L1507.72 1166.99 L1502.67 1168.54 L1497.76 1170.49 L1493.03 1172.82 L1488.49 1175.52 L1484.18 1178.57 L1480.13 1181.96 
  L1476.36 1185.65 L1472.89 1189.64 L1469.76 1193.88 L1466.97 1198.37 L1464.54 1203.06 L1462.5 1207.93 L1460.84 1212.94 L1459.6 1218.07 L1458.76 1223.28 L1458.34 1228.55 
  L1458.34 1233.83 L1458.76 1239.09 L1459.6 1244.3 L1460.84 1249.44 L1462.5 1254.45 L1464.54 1259.32 L1466.97 1264.01 L1469.76 1268.49 L1472.89 1272.74 L1476.36 1276.72 
  L1480.13 1280.42 L1484.18 1283.8 L1488.49 1286.86 L1493.03 1289.56 L1497.76 1291.89 L1502.67 1293.84 L1507.72 1295.39 L1512.87 1296.53 L1518.1 1297.27 L1523.37 1297.58 
  L1528.65 1297.47 L1533.91 1296.95 L1539.1 1296.01 L1544.21 1294.66 L1549.19 1292.91 L1554.01 1290.77 L1558.66 1288.25 L1563.08 1285.37 L1567.27 1282.15 L1571.18 1278.61 
  L1574.8 1274.76 L1578.1 1270.65 L1581.07 1266.28 L1583.68 1261.69 L1585.92 1256.9 L1587.77 1251.96 L1589.22 1246.88 L1590.26 1241.71 L1590.89 1236.46 L1591.1 1231.19 
  L1591.1 1231.19  Z
  " fill="#009af9" fill-rule="evenodd" fill-opacity="1"/>
<polyline clip-path="url(#clip212)" style="stroke:#000000; stroke-linecap:butt; stroke-linejoin:round; stroke-width:4; stroke-opacity:1; fill:none" points="
  1591.1,1231.19 1590.89,1225.91 1590.26,1220.67 1589.22,1215.49 1587.77,1210.42 1585.92,1205.47 1583.68,1200.69 1581.07,1196.1 1578.1,1191.73 1574.8,1187.61 
  1571.18,1183.77 1567.27,1180.22 1563.08,1177 1558.66,1174.12 1554.01,1171.61 1549.19,1169.47 1544.21,1167.71 1539.1,1166.37 1533.91,1165.43 1528.65,1164.9 
  1523.37,1164.8 1518.1,1165.11 1512.87,1165.84 1507.72,1166.99 1502.67,1168.54 1497.76,1170.49 1493.03,1172.82 1488.49,1175.52 1484.18,1178.57 1480.13,1181.96 
  1476.36,1185.65 1472.89,1189.64 1469.76,1193.88 1466.97,1198.37 1464.54,1203.06 1462.5,1207.93 1460.84,1212.94 1459.6,1218.07 1458.76,1223.28 1458.34,1228.55 
  1458.34,1233.83 1458.76,1239.09 1459.6,1244.3 1460.84,1249.44 1462.5,1254.45 1464.54,1259.32 1466.97,1264.01 1469.76,1268.49 1472.89,1272.74 1476.36,1276.72 
  1480.13,1280.42 1484.18,1283.8 1488.49,1286.86 1493.03,1289.56 1497.76,1291.89 1502.67,1293.84 1507.72,1295.39 1512.87,1296.53 1518.1,1297.27 1523.37,1297.58 
  1528.65,1297.47 1533.91,1296.95 1539.1,1296.01 1544.21,1294.66 1549.19,1292.91 1554.01,1290.77 1558.66,1288.25 1563.08,1285.37 1567.27,1282.15 1571.18,1278.61 
  1574.8,1274.76 1578.1,1270.65 1581.07,1266.28 1583.68,1261.69 1585.92,1256.9 1587.77,1251.96 1589.22,1246.88 1590.26,1241.71 1590.89,1236.46 1591.1,1231.19 
  
  "/>
<circle clip-path="url(#clip212)" style="fill:#009af9; stroke:none; fill-opacity:1" cx="1737.68" cy="800" r="2"/>
<circle clip-path="url(#clip212)" style="fill:#009af9; stroke:none; fill-opacity:1" cx="1524.69" cy="368.812" r="2"/>
<circle clip-path="url(#clip212)" style="fill:#009af9; stroke:none; fill-opacity:1" cx="1046.11" cy="262.317" r="2"/>
<circle clip-path="url(#clip212)" style="fill:#009af9; stroke:none; fill-opacity:1" cx="662.317" cy="560.709" r="2"/>
<circle clip-path="url(#clip212)" style="fill:#009af9; stroke:none; fill-opacity:1" cx="662.317" cy="1039.29" r="2"/>
<circle clip-path="url(#clip212)" style="fill:#009af9; stroke:none; fill-opacity:1" cx="1046.11" cy="1337.68" r="2"/>
<circle clip-path="url(#clip212)" style="fill:#009af9; stroke:none; fill-opacity:1" cx="1524.69" cy="1231.19" r="2"/>
<path clip-path="url(#clip210)" d="M1729.18 784.88 L1745.24 784.88 L1745.24 788.323 L1732.92 788.323 L1732.92 795.736 Q1733.81 795.433 1734.71 795.291 Q1735.6 795.129 1736.49 795.129 Q1741.55 795.129 1744.51 797.904 Q1747.47 800.679 1747.47 805.418 Q1747.47 810.299 1744.43 813.014 Q1741.39 815.707 1735.86 815.707 Q1733.96 815.707 1731.97 815.383 Q1730.01 815.059 1727.9 814.411 L1727.9 810.299 Q1729.72 811.292 1731.67 811.778 Q1733.61 812.264 1735.78 812.264 Q1739.28 812.264 1741.33 810.421 Q1743.37 808.578 1743.37 805.418 Q1743.37 802.258 1741.33 800.415 Q1739.28 798.572 1735.78 798.572 Q1734.14 798.572 1732.5 798.937 Q1730.88 799.301 1729.18 800.071 L1729.18 784.88 Z" fill="#000000" fill-rule="evenodd" fill-opacity="1" /><path clip-path="url(#clip210)" d="M1527.33 357.257 L1517 373.4 L1527.33 373.4 L1527.33 357.257 M1526.25 353.692 L1531.4 353.692 L1531.4 373.4 L1535.71 373.4 L1535.71 376.802 L1531.4 376.802 L1531.4 383.932 L1527.33 383.932 L1527.33 376.802 L1513.67 376.802 L1513.67 372.853 L1526.25 353.692 Z" fill="#000000" fill-rule="evenodd" fill-opacity="1" /><path clip-path="url(#clip210)" d="M1046.47 260.687 Q1043.71 260.687 1042.09 262.57 Q1040.49 264.454 1040.49 267.735 Q1040.49 270.996 1042.09 272.9 Q1043.71 274.784 1046.47 274.784 Q1049.22 274.784 1050.82 272.9 Q1052.44 270.996 1052.44 267.735 Q1052.44 264.454 1050.82 262.57 Q1049.22 260.687 1046.47 260.687 M1054.59 247.866 L1054.59 251.592 Q1053.05 250.863 1051.47 250.478 Q1049.91 250.094 1048.37 250.094 Q1044.32 250.094 1042.17 252.828 Q1040.04 255.562 1039.74 261.092 Q1040.94 259.33 1042.74 258.398 Q1044.54 257.446 1046.71 257.446 Q1051.27 257.446 1053.9 260.221 Q1056.55 262.975 1056.55 267.735 Q1056.55 272.394 1053.8 275.209 Q1051.04 278.025 1046.47 278.025 Q1041.22 278.025 1038.44 274.014 Q1035.67 269.984 1035.67 262.348 Q1035.67 255.177 1039.07 250.924 Q1042.48 246.65 1048.21 246.65 Q1049.75 246.65 1051.31 246.954 Q1052.89 247.258 1054.59 247.866 Z" fill="#000000" fill-rule="evenodd" fill-opacity="1" /><path clip-path="url(#clip210)" d="M652.595 545.589 L672.039 545.589 L672.039 547.331 L661.061 575.829 L656.788 575.829 L667.118 549.032 L652.595 549.032 L652.595 545.589 Z" fill="#000000" fill-rule="evenodd" fill-opacity="1" /><path clip-path="url(#clip210)" d="M657.638 1050.97 L671.918 1050.97 L671.918 1054.41 L652.717 1054.41 L652.717 1050.97 Q655.046 1048.56 659.056 1044.51 Q663.087 1040.44 664.12 1039.26 Q666.085 1037.05 666.854 1035.53 Q667.644 1033.99 667.644 1032.52 Q667.644 1030.11 665.943 1028.59 Q664.262 1027.07 661.548 1027.07 Q659.623 1027.07 657.476 1027.74 Q655.35 1028.4 652.919 1029.76 L652.919 1025.63 Q655.39 1024.64 657.537 1024.13 Q659.684 1023.62 661.467 1023.62 Q666.166 1023.62 668.961 1025.97 Q671.756 1028.32 671.756 1032.25 Q671.756 1034.12 671.047 1035.8 Q670.358 1037.46 668.515 1039.73 Q668.009 1040.31 665.295 1043.13 Q662.581 1045.92 657.638 1050.97 Z" fill="#000000" fill-rule="evenodd" fill-opacity="1" /><path clip-path="url(#clip210)" d="M1024.25 1349.36 L1030.93 1349.36 L1030.93 1326.29 L1023.66 1327.75 L1023.66 1324.02 L1030.89 1322.56 L1034.98 1322.56 L1034.98 1349.36 L1041.66 1349.36 L1041.66 1352.8 L1024.25 1352.8 L1024.25 1349.36 Z" fill="#000000" fill-rule="evenodd" fill-opacity="1" /><path clip-path="url(#clip210)" d="M1062.32 1336.5 Q1065.26 1337.13 1066.9 1339.11 Q1068.56 1341.1 1068.56 1344.01 Q1068.56 1348.49 1065.48 1350.94 Q1062.41 1353.39 1056.73 1353.39 Q1054.83 1353.39 1052.8 1353.01 Q1050.8 1352.64 1048.65 1351.89 L1048.65 1347.94 Q1050.35 1348.93 1052.38 1349.44 Q1054.4 1349.95 1056.61 1349.95 Q1060.46 1349.95 1062.47 1348.43 Q1064.49 1346.91 1064.49 1344.01 Q1064.49 1341.34 1062.61 1339.84 Q1060.74 1338.32 1057.4 1338.32 L1053.88 1338.32 L1053.88 1334.96 L1057.56 1334.96 Q1060.58 1334.96 1062.18 1333.76 Q1063.78 1332.55 1063.78 1330.28 Q1063.78 1327.95 1062.12 1326.71 Q1060.48 1325.46 1057.4 1325.46 Q1055.72 1325.46 1053.8 1325.82 Q1051.87 1326.19 1049.56 1326.96 L1049.56 1323.31 Q1051.89 1322.66 1053.92 1322.34 Q1055.96 1322.02 1057.77 1322.02 Q1062.43 1322.02 1065.14 1324.14 Q1067.85 1326.25 1067.85 1329.85 Q1067.85 1332.37 1066.42 1334.11 Q1064.98 1335.83 1062.32 1336.5 Z" fill="#000000" fill-rule="evenodd" fill-opacity="1" /><path clip-path="url(#clip210)" d="M1502.47 1242.86 L1509.16 1242.86 L1509.16 1219.79 L1501.89 1221.25 L1501.89 1217.53 L1509.12 1216.07 L1513.21 1216.07 L1513.21 1242.86 L1519.89 1242.86 L1519.89 1246.31 L1502.47 1246.31 L1502.47 1242.86 Z" fill="#000000" fill-rule="evenodd" fill-opacity="1" /><path clip-path="url(#clip210)" d="M1537.41 1229.56 Q1534.66 1229.56 1533.04 1231.44 Q1531.44 1233.32 1531.44 1236.61 Q1531.44 1239.87 1533.04 1241.77 Q1534.66 1243.65 1537.41 1243.65 Q1540.17 1243.65 1541.77 1241.77 Q1543.39 1239.87 1543.39 1236.61 Q1543.39 1233.32 1541.77 1231.44 Q1540.17 1229.56 1537.41 1229.56 M1545.54 1216.74 L1545.54 1220.46 Q1544 1219.73 1542.42 1219.35 Q1540.86 1218.96 1539.32 1218.96 Q1535.27 1218.96 1533.12 1221.7 Q1530.99 1224.43 1530.69 1229.96 Q1531.88 1228.2 1533.69 1227.27 Q1535.49 1226.32 1537.66 1226.32 Q1542.21 1226.32 1544.85 1229.09 Q1547.5 1231.85 1547.5 1236.61 Q1547.5 1241.26 1544.75 1244.08 Q1541.99 1246.9 1537.41 1246.9 Q1532.17 1246.9 1529.39 1242.89 Q1526.62 1238.85 1526.62 1231.22 Q1526.62 1224.05 1530.02 1219.79 Q1533.42 1215.52 1539.16 1215.52 Q1540.69 1215.52 1542.25 1215.83 Q1543.83 1216.13 1545.54 1216.74 Z" fill="#000000" fill-rule="evenodd" fill-opacity="1" /></svg>
